<svg xmlns="http://www.w3.org/2000/svg" width="47.251" height="44.267"><g data-name="Group 122" transform="translate(-371.749 -2329.733)"><ellipse data-name="Ellipse 11" cx="23.5" cy="22" rx="23.5" ry="22" transform="translate(372 2330)" fill="#fff"/><g fill="#00333e" stroke="#00333e" stroke-width=".5"><path data-name="Path 171" d="M384.009 2340.85v-2.827a7.919 7.919 0 016.106-7.857 7.733 7.733 0 019.335 7.555v3.431a7.733 7.733 0 01-9.335 7.556 7.919 7.919 0 01-6.106-7.858zm1.716-2.994v3.162a6.005 6.005 0 1012.009.134v-3.432a6.006 6.006 0 10-12.009.136z"/><path data-name="Path 172" d="M409.743 2371.172H372l.024-11.354c1.326-5.446 5.276-10.946 11.127-10.946h.667l.165.648c.065.252 1.678 6.217 6.883 6.171 5.281-.036 6.878-6.111 6.893-6.173l.165-.647h.667c5.859 0 9.81 5.5 11.127 10.951l.024.2zm-36.028-1.716h34.313v-9.3c-1.131-4.545-4.262-9.1-8.822-9.479-.657 1.822-2.934 6.732-8.329 6.768h-.057c-4.816 0-7.41-4.1-8.3-6.768-4.538.391-7.664 4.941-8.8 9.479z"/></g></g></svg>