<svg xmlns="http://www.w3.org/2000/svg" width="50" height="45"><g data-name="Group 118" transform="translate(-129 -2331)"><ellipse data-name="Ellipse 7" cx="23.5" cy="22" rx="23.5" ry="22" transform="translate(132 2332)" fill="#fff"/><g transform="translate(-63 2115)" fill="#00333e"><path data-name="Path 162" d="M213 258a21 21 0 1121-21 21.023 21.023 0 01-21 21zm0-40.25A19.25 19.25 0 10232.25 237 19.273 19.273 0 00213 217.75z"/><path data-name="Path 163" d="M213 250.563a14.046 14.046 0 01-12.112-7 .873.873 0 01.758-1.312h22.713a.874.874 0 01.758 1.313A14.046 14.046 0 01213 250.563zm-9.72-6.562a12.221 12.221 0 0019.439 0z"/><circle data-name="Ellipse 2" cx="2.5" cy="2.5" r="2.5" transform="translate(203 227)"/><ellipse data-name="Ellipse 3" cx="3" cy="2.5" rx="3" ry="2.5" transform="translate(218 227)"/></g></g></svg>