<svg xmlns="http://www.w3.org/2000/svg" width="50.1" height="50.2"><g data-name="Group 119" transform="translate(-371.9 -2328.9)"><ellipse data-name="Ellipse 8" cx="23.5" cy="22" rx="23.5" ry="22" transform="translate(375 2329)" fill="#fff"/><g fill="#00333e" stroke="#00333e" stroke-width=".2"><path data-name="Path 186" d="M386.614 2367.27a2.612 2.612 0 01-.805-.124c-1.338-.434-2.016-1.853-2.615-3.106a3.3 3.3 0 00-3.647-2.643c-1.432-.193-2.912-.392-3.729-1.514s-.544-2.573-.288-3.987a5.91 5.91 0 00.141-2.46 5.717 5.717 0 00-1.506-1.815c-1.015-.963-2.164-2.055-2.164-3.486s1.15-2.523 2.165-3.487a5.727 5.727 0 001.506-1.815 5.914 5.914 0 00-.142-2.461c-.256-1.414-.521-2.876.288-3.987s2.3-1.321 3.73-1.513a3.3 3.3 0 003.646-2.643c.6-1.252 1.277-2.672 2.615-3.106a2.588 2.588 0 01.806-.124 6.8 6.8 0 013.027 1.078 3.476 3.476 0 004.686 0 6.8 6.8 0 013.027-1.078 2.592 2.592 0 01.806.124c1.338.434 2.016 1.853 2.615 3.106a3.3 3.3 0 003.647 2.643c1.432.192 2.913.391 3.73 1.513s.544 2.573.288 3.987a5.921 5.921 0 00-.141 2.461 5.737 5.737 0 001.506 1.815c1.015.963 2.164 2.055 2.164 3.486s-1.15 2.523-2.164 3.486a5.736 5.736 0 00-1.506 1.815 5.918 5.918 0 00.142 2.46c.256 1.414.521 2.876-.288 3.987s-2.3 1.321-3.73 1.514a3.3 3.3 0 00-3.647 2.643c-.6 1.252-1.277 2.671-2.615 3.106a2.612 2.612 0 01-.806.124 6.8 6.8 0 01-3.027-1.077 3.478 3.478 0 00-4.688 0 6.8 6.8 0 01-3.027 1.077zm5.371-3.678a7 7 0 013.145 1.111c.94.506 1.933 1.022 2.509.833.646-.21 1.137-1.235 1.61-2.226a4.83 4.83 0 014.949-3.591c1.08-.145 2.2-.295 2.587-.832s.184-1.626-.009-2.689a6.925 6.925 0 01-.086-3.285 6.7 6.7 0 011.95-2.52c.8-.764 1.637-1.554 1.637-2.259s-.833-1.495-1.637-2.259a6.7 6.7 0 01-1.95-2.52 6.923 6.923 0 01.086-3.285c.193-1.064.392-2.163.008-2.69s-1.507-.687-2.586-.831a4.829 4.829 0 01-4.949-3.591c-.473-.991-.964-2.016-1.61-2.226-.58-.188-1.57.328-2.509.834a5.008 5.008 0 01-6.29 0c-.94-.506-1.931-1.022-2.508-.834-.647.21-1.137 1.235-1.611 2.226a4.828 4.828 0 01-4.948 3.59c-1.08.145-2.2.294-2.588.832s-.184 1.626.009 2.689a6.936 6.936 0 01.086 3.285 6.7 6.7 0 01-1.95 2.52c-.805.764-1.638 1.554-1.638 2.259s.832 1.495 1.637 2.258a6.7 6.7 0 011.95 2.52 6.935 6.935 0 01-.086 3.285c-.193 1.064-.392 2.163-.009 2.689s1.507.687 2.587.832a4.831 4.831 0 014.949 3.591c.474.991.964 2.016 1.611 2.226.578.189 1.569-.329 2.508-.833a7 7 0 013.146-1.109z"/><path data-name="Path 187" d="M391.985 2367.107a8.169 8.169 0 00-1.482.689c-.17.091-.344.184-.521.276l-2.117 7.89-2.605-4.513a.846.846 0 00-1.156-.31l-4.513 2.606 2.236-8.346c-.1-.2-.19-.39-.278-.573a8.938 8.938 0 00-.725-1.339 1.7 1.7 0 00-.218-.067l-3.179 11.861a.846.846 0 001.24.952l5.549-3.2 3.2 5.549a.846.846 0 00.732.423.883.883 0 00.111-.007.846.846 0 00.707-.62l3.018-11.264z"/><path data-name="Path 188" d="M403.679 2363.349a3.027 3.027 0 00-.54.137 8.9 8.9 0 00-.725 1.339l-.059.123 2.357 8.8-4.512-2.606a.847.847 0 00-1.156.31l-2.605 4.513-2.06-7.69c-.316-.155-.621-.319-.915-.477-.313-.168-.768-.413-1.116-.562l2.985 11.139a.846.846 0 00.707.62.877.877 0 00.11.007.847.847 0 00.733-.423l3.2-5.549 5.549 3.2a.846.846 0 001.24-.952z"/><path data-name="Path 189" d="M391.983 2358.404a10.27 10.27 0 114.782-19.36.847.847 0 11-.789 1.5 8.571 8.571 0 103.534 3.476.846.846 0 111.484-.813 10.273 10.273 0 01-9.011 15.2z"/></g></g></svg>