<svg xmlns="http://www.w3.org/2000/svg" width="48" height="44"><g data-name="Group 121" transform="translate(-816 -2330)"><ellipse data-name="Ellipse 10" cx="23.5" cy="22" rx="23.5" ry="22" transform="translate(817 2330)" fill="#fff"/><g data-name="Group 63" fill="none" stroke="#000" stroke-linecap="round" stroke-linejoin="round" stroke-width="2"><path data-name="Path 153" d="M823.956 2355.348h1.739v-10.435h-1.739a5.217 5.217 0 00-5.217 5.217h0a5.217 5.217 0 005.217 5.218z"/><path data-name="Path 154" d="M851.783 2355.348h-1.739v-10.435h1.739a5.217 5.217 0 015.217 5.217h0a5.217 5.217 0 01-5.217 5.218z"/><path data-name="Path 155" d="M825.696 2344.913v-3.478c0-5.763 6.41-10.435 12.174-10.435h0c5.763 0 12.174 4.671 12.174 10.435v3.478"/><path data-name="Path 156" d="M850.043 2355.348a7.213 7.213 0 01-6.956 6.957"/><path data-name="Path 157" d="M852.287 2363.139a14.115 14.115 0 011.722 1.461A9 9 0 01857 2371"/><path data-name="Path 158" d="M817 2371.003c0-5.13 5.2-9.513 12.557-11.287"/><path data-name="Path 159" d="M841.347 2364.043h-3.478a1.738 1.738 0 01-1.739-1.739h0a1.739 1.739 0 011.739-1.739h3.478a1.739 1.739 0 011.739 1.739h0a1.738 1.738 0 01-1.739 1.739z"/></g></g></svg>