<svg xmlns="http://www.w3.org/2000/svg" width="24.999" height="24.999"><g data-name="Group 43"><g data-name="Group 41"><path data-name="Path 146" d="M12.5 23.999h0A11.5 11.5 0 011 12.499h0A11.5 11.5 0 0112.5.999h0a11.5 11.5 0 0111.5 11.5h0a11.5 11.5 0 01-11.5 11.5z" fill="none" stroke="#fff" stroke-width="2"/></g><g data-name="Group 42" fill="#fff"><path data-name="Path 147" d="M12.5 7.916c1.493 0 1.67.005 2.259.033a3.085 3.085 0 011.038.193 1.849 1.849 0 011.061 1.061 3.089 3.089 0 01.192 1.038c.027.59.033.767.033 2.259s-.005 1.67-.033 2.259a3.089 3.089 0 01-.192 1.038 1.851 1.851 0 01-1.061 1.061 3.085 3.085 0 01-1.038.193c-.59.027-.766.032-2.259.032s-1.67-.005-2.259-.032a3.085 3.085 0 01-1.038-.193 1.851 1.851 0 01-1.061-1.061 3.1 3.1 0 01-.193-1.038c-.027-.59-.032-.766-.032-2.259s.005-1.67.032-2.259a3.1 3.1 0 01.193-1.038 1.849 1.849 0 011.061-1.061 3.085 3.085 0 011.038-.193c.59-.027.766-.033 2.259-.033m0-1.007c-1.518 0-1.709.006-2.305.034a4.092 4.092 0 00-1.357.26 2.854 2.854 0 00-1.635 1.635 4.106 4.106 0 00-.26 1.357c-.027.6-.033.787-.033 2.305s.006 1.709.033 2.305a4.11 4.11 0 00.26 1.357 2.858 2.858 0 001.635 1.635 4.1 4.1 0 001.357.26c.6.027.787.034 2.305.034s1.709-.007 2.305-.034a4.1 4.1 0 001.357-.26 2.857 2.857 0 001.635-1.635 4.123 4.123 0 00.26-1.357c.027-.6.033-.787.033-2.305s-.006-1.708-.033-2.305a4.119 4.119 0 00-.26-1.357 2.854 2.854 0 00-1.635-1.635 4.092 4.092 0 00-1.357-.26c-.6-.027-.787-.034-2.305-.034"/><path data-name="Path 148" d="M12.5 9.629a2.871 2.871 0 102.871 2.871A2.871 2.871 0 0012.5 9.629m0 4.735a1.863 1.863 0 111.864-1.864 1.864 1.864 0 01-1.864 1.864"/><path data-name="Path 149" d="M16.155 9.515a.671.671 0 11-.671-.671.671.671 0 01.671.671"/></g></g></svg>