<svg xmlns="http://www.w3.org/2000/svg" width="47.414" height="49"><g data-name="Group 120" transform="translate(-370.586 -2328)"><ellipse data-name="Ellipse 9" cx="23.5" cy="22" rx="23.5" ry="22" transform="translate(371 2333)" fill="#fff"/><g data-name="Group 65" transform="translate(51 1912)" fill="none" stroke="#00333e" stroke-linecap="round" stroke-linejoin="round" stroke-width="2"><path data-name="Path 160" d="M342.9 443.971a2.9 2.9 0 11-2.9-2.906 2.9 2.9 0 012.9 2.906z"/><path data-name="Line 5" d="M337 444h-10"/><path data-name="Line 6" d="M340 425v-4"/><path data-name="Line 7" d="M323.692 427.482l2.832 2.837"/><path data-name="Line 8" d="M321 430l5-5"/><path data-name="Path 161" d="M340 430a14 14 0 11-13.194 18.363"/><circle data-name="Ellipse 1" cx="19" cy="19" r="19" transform="translate(321 425)"/><path data-name="Rectangle 21" d="M336 417h8v4h-8z"/><path data-name="Line 9" d="M356.308 427.482l-2.832 2.837"/><path data-name="Line 10" d="M359 430l-5-5"/></g></g></svg>