<svg xmlns="http://www.w3.org/2000/svg" width="24.999" height="24.999"><g data-name="Group 33"><g data-name="Group 32"><path data-name="Path 137" d="M12.5 23.999h0A11.5 11.5 0 011 12.499h0A11.5 11.5 0 0112.5.999h0a11.5 11.5 0 0111.5 11.5h0a11.5 11.5 0 01-11.5 11.5z" fill="none" stroke="#fff" stroke-width="2"/></g><path data-name="Path 138" d="M7.067 16.377a6.34 6.34 0 009.753-5.63 4.534 4.534 0 001.113-1.154 4.473 4.473 0 01-1.281.351 2.234 2.234 0 00.98-1.234 4.457 4.457 0 01-1.415.542 2.231 2.231 0 00-3.8 2.033 6.326 6.326 0 01-4.595-2.329 2.232 2.232 0 00.69 2.977 2.227 2.227 0 01-1.01-.279 2.232 2.232 0 001.788 2.214 2.237 2.237 0 01-1.007.038 2.231 2.231 0 002.084 1.549 4.482 4.482 0 01-3.3.922z" fill="#fff"/></g></svg>