<svg xmlns="http://www.w3.org/2000/svg" width="24.999" height="25"><g data-name="Group 44"><path data-name="Path 150" d="M12.5 24h0A11.5 11.5 0 011 12.5h0A11.5 11.5 0 0112.5 1h0A11.5 11.5 0 0124 12.5h0A11.5 11.5 0 0112.5 24z" fill="none" stroke="#fff" stroke-width="2"/><path data-name="Path 151" d="M9.237 13.447a.239.239 0 00.348-.174c.032-.122.108-.43.142-.558a.335.335 0 00-.1-.387 2.008 2.008 0 01-.459-1.365 3.3 3.3 0 013.425-3.332 2.6 2.6 0 012.894 2.666c0 2.006-.888 3.7-2.205 3.7a1.077 1.077 0 01-1.1-1.339 14.847 14.847 0 00.614-2.469.932.932 0 00-.938-1.044c-.744 0-1.342.77-1.342 1.8a2.67 2.67 0 00.222 1.1l-.894 3.791a7.8 7.8 0 00-.017 2.644.093.093 0 00.165.04 7.422 7.422 0 001.256-2.277c.086-.309.49-1.912.49-1.912a1.993 1.993 0 001.7.866c2.236 0 3.754-2.038 3.754-4.767a4.157 4.157 0 00-4.4-3.985c-3.305 0-4.972 2.37-4.972 4.345a2.679 2.679 0 001.417 2.657z" fill="#fff"/></g></svg>