<svg xmlns="http://www.w3.org/2000/svg" width="45" height="45"><g fill="#00333e" stroke="#00333e"><path data-name="Path 182" d="M28 44.5H17V27.083a4.589 4.589 0 014.583-4.583h1.833A4.589 4.589 0 0128 27.083zm-9.167-1.833h7.333V27.083a2.753 2.753 0 00-2.75-2.75h-1.833a2.753 2.753 0 00-2.75 2.75z"/><path data-name="Path 183" d="M36.25 44.5H8.75A2.753 2.753 0 016 41.75V20.667H3.25a2.753 2.753 0 01-2.75-2.75v-2.33l22-14.351 22 14.348v2.33a2.753 2.753 0 01-2.75 2.75H39v21.083a2.753 2.753 0 01-2.75 2.753zM2.333 16.578v1.338a.918.918 0 00.917.917h4.583V41.75a.918.918 0 00.917.917h27.5a.918.918 0 00.917-.917V18.836h4.583a.918.918 0 00.917-.917v-1.338L22.5 3.428z"/><path data-name="Path 184" d="M35.333 9.667H33.5V3.25a.917.917 0 00-1.833 0v4.583h-1.834V3.25a2.75 2.75 0 115.5 0z"/></g></svg>