<svg xmlns="http://www.w3.org/2000/svg" width="24.217" height="24.295"><g data-name="paper plane" fill="none" stroke="#fff" stroke-width="1.5"><path data-name="Path 164" d="M1.271 12.109a.471.471 0 01-.2-.9L22.746.843a.471.471 0 01.407.85L1.478 12.059a.474.474 0 01-.207.05z"/><path data-name="Path 165" d="M20.119 21.532a.545.545 0 01-.068 0 .471.471 0 01-.4-.532l2.827-19.79a.471.471 0 11.933.132l-2.827 19.79a.471.471 0 01-.465.4z"/><path data-name="Path 166" d="M6.924 14.936a.481.481 0 01-.21-.05L1.06 12.059a.471.471 0 01.422-.842l5.654 2.827a.471.471 0 01-.212.892z"/><path data-name="Path 167" d="M20.117 21.532a.474.474 0 01-.19-.041l-8.481-3.77a.471.471 0 01.383-.861l8.481 3.77a.471.471 0 01-.192.9z"/><path data-name="Path 168" d="M11.635 17.762a.471.471 0 01-.386-.74l6.943-10.028-10.993 7.852a.471.471 0 11-.548-.765l13.193-9.424a.471.471 0 01.662.651l-8.481 12.251a.471.471 0 01-.39.203z"/><path data-name="Path 169" d="M10.695 23.417a.471.471 0 01-.432-.28l-3.77-8.481a.471.471 0 11.861-.383l3.77 8.481a.471.471 0 01-.43.662z"/><path data-name="Rectangle 22" d="M10.326 22.651l3.771-4.713.737.59-3.772 4.712z" stroke-width="1.500435"/><path data-name="Path 170" d="M10.695 23.421a.44.44 0 01-.078-.007.471.471 0 01-.387-.542l.942-5.654a.471.471 0 11.929.155l-.942 5.654a.47.47 0 01-.464.394z"/></g></svg>