<svg xmlns="http://www.w3.org/2000/svg" width="55.377" height="47"><g data-name="Group 119" transform="translate(-366.623 -2329)"><ellipse data-name="Ellipse 8" cx="23.5" cy="22" rx="23.5" ry="22" transform="translate(375 2329)" fill="#efed70"/><g transform="translate(317.623 2213.5)" fill="#00333e"><path data-name="Path 202" d="M58.725 132.4a4.376 4.376 0 01-2.561-.827 4.455 4.455 0 01-1.852-3.6v-7.083a.885.885 0 111.771 0v7.083a2.678 2.678 0 001.116 2.166 2.65 2.65 0 002.428.342 2.769 2.769 0 001.769-2.685v-6.906a.885.885 0 111.771 0v6.906a4.554 4.554 0 01-2.984 4.367 4.637 4.637 0 01-1.458.237z"/><path data-name="Path 203" d="M79.989 141.254a.886.886 0 01-.885-.89v-10.625a.885.885 0 011.771 0v10.625a.886.886 0 01-.886.89z"/><path data-name="Path 204" d="M81.762 130.625h-3.544a.882.882 0 01-.792-.489l-1.771-3.542a.889.889 0 01-.048-.676l1.771-5.312a.886.886 0 01.839-.606h3.545a.885.885 0 01.839.606l1.771 5.312a.889.889 0 01-.048.676l-1.771 3.542a.882.882 0 01-.791.489zm-3-1.771h2.45l1.362-2.724-1.452-4.36h-2.267l-1.452 4.36z"/><path data-name="Path 205" d="M58.739 139.478a9.747 9.747 0 01-3.9-18.677.886.886 0 11.719 1.619 7.969 7.969 0 106.364 0 .886.886 0 11.719-1.619 9.747 9.747 0 01-3.9 18.677z"/><path data-name="Path 206" d="M58.739 162.499a4.433 4.433 0 01-4.427-4.427v-19.479a.885.885 0 111.771 0v19.479a2.656 2.656 0 105.312 0v-19.479a.885.885 0 111.771 0v19.479a4.433 4.433 0 01-4.427 4.427z"/><ellipse data-name="Ellipse 14" cx=".5" cy="1.5" rx=".5" ry="1.5" transform="translate(58.437 156.5)"/><path data-name="Path 207" d="M79.991 162.5a4.433 4.433 0 01-4.427-4.427v-13.282h-.885a.886.886 0 01-.885-.885v-3.542a.886.886 0 01.885-.885h10.622a.886.886 0 01.885.885v3.542a.886.886 0 01-.885.885h-.885v13.281a4.433 4.433 0 01-4.425 4.428zm-4.427-19.479h.885a.886.886 0 01.885.885v14.166a2.656 2.656 0 105.312 0v-14.166a.886.886 0 01.885-.885h.885v-1.771h-8.854z"/></g></g></svg>