<svg xmlns="http://www.w3.org/2000/svg" width="69.987" height="44.199"><g data-name="Group 119" transform="translate(-364.86 -2329)"><ellipse data-name="Ellipse 8" cx="23.5" cy="22" rx="23.5" ry="22" transform="translate(375 2329)" fill="#efed70"/><g fill="#00333e" stroke="#00333e" stroke-width=".4"><path data-name="Path 190" d="M425.369 2368.721a.912.912 0 01-.912-.912v-3.832a.913.913 0 011.825 0v3.832a.913.913 0 01-.913.912z"/><path data-name="Path 191" d="M423.414 2352.09a10.414 10.414 0 10-15.042 0 14.35 14.35 0 00-4.389 1.151 14.526 14.526 0 011.854 1.243 15.593 15.593 0 014.712-.693 10.366 10.366 0 0010.686 0c10.2.093 11.588 7.129 11.588 14.016a.913.913 0 101.825 0c-.001-6.329-1.226-14.602-11.234-15.717zm-7.522 1.36a8.565 8.565 0 118.565-8.565 8.575 8.575 0 01-8.565 8.566z"/><path data-name="Path 192" d="M396.158 2353.271a12.376 12.376 0 10-17.323 0c-12.286 1.163-13.775 11.173-13.775 18.815a.913.913 0 001.825 0c0-8.412 1.7-17.008 14.217-17.1a12.326 12.326 0 0012.791 0c12.518.09 14.217 8.686 14.217 17.1a.913.913 0 001.825 0c-.001-7.641-1.49-17.652-13.777-18.815zm-19.182-8.839a10.521 10.521 0 1110.521 10.521 10.532 10.532 0 01-10.521-10.52z"/><path data-name="Path 193" d="M376.064 2373a.912.912 0 01-.912-.912v-4.53a.913.913 0 111.825 0v4.53a.913.913 0 01-.913.912z"/><path data-name="Path 194" d="M398.932 2373a.912.912 0 01-.912-.912v-4.53a.913.913 0 111.825 0v4.53a.913.913 0 01-.913.912z"/></g></g></svg>