<svg xmlns="http://www.w3.org/2000/svg" width="61.222" height="54.839"><g data-name="Group 119" transform="translate(-361.534 -2325.275)"><ellipse data-name="Ellipse 8" cx="23.5" cy="22" rx="23.5" ry="22" transform="translate(375 2329)" fill="#efed70"/><g data-name="Group 152"><path data-name="Path 208" d="M367.445 2358.458a22.524 22.524 0 0140.338-18.56.928.928 0 11-1.531 1.049 20.662 20.662 0 103.555 13.262.928.928 0 111.85.142 22.524 22.524 0 01-44.21 4.107z" fill="#00333e"/></g><g data-name="Group 153"><path data-name="Path 209" d="M400.015 2363.202a.927.927 0 01.197-.854 14.848 14.848 0 003.068-5.578.928.928 0 011.781.522 16.714 16.714 0 01-3.453 6.28.928.928 0 01-1.594-.37z" fill="#00333e"/></g><g data-name="Group 154"><path data-name="Path 210" d="M373.12 2356.936a16.588 16.588 0 0127.283-16.474.928.928 0 01-1.26 1.364 14.733 14.733 0 10-2.62 23.558.928.928 0 11.932 1.606 16.583 16.583 0 01-24.336-10.052z" fill="#00333e"/></g><path data-name="Path 211" d="M384.698 2350.026l7.948 8.556 25.06-20.789" fill="none" stroke="#00333e" stroke-linecap="round" stroke-width="2.00024"/></g></svg>