<svg xmlns="http://www.w3.org/2000/svg" width="48.532" height="49.725"><g data-name="Group 119" transform="translate(-368.468 -2329)"><ellipse data-name="Ellipse 8" cx="23.5" cy="22" rx="23.5" ry="22" transform="translate(370 2329)" fill="#efed70"/><g data-name="Group 155" fill="#00333e"><path data-name="Path 213" d="M401.315 2369.259a6.746 6.746 0 01-9.683-.042 7.144 7.144 0 01.044-9.942 6.74 6.74 0 019.683.042 7.144 7.144 0 01-.044 9.942zm1.255-11.118a9.2 9.2 0 00-.347-.338c1.639-7.093 1.148-13.254-1.688-17.13-3.865-5.284-10.322-4.619-13.051-4.147a21.059 21.059 0 00-9.136 3.845c-2.882 2.32-2.154 3.65-4.073 7.927a16.3 16.3 0 01-3.033 4.252c-2.905 2.1-3.314 6.279-2.219 9.323 1.121 3.109 3.494 5.527 5.589 7.663a.844.844 0 001.2-1.183c-1.974-2.012-4.21-4.29-5.206-7.052-.881-2.449-.609-5.773 1.619-7.382a17.055 17.055 0 003.585-4.927c2-4.46 1.175-5.359 3.592-7.3a19.69 19.69 0 018.284-3.485c2.458-.279 8.2-1.016 11.483 3.468 3.714 5.077 2.417 11.992 1.686 14.729a5.68 5.68 0 01-.111.313 8.237 8.237 0 00-2.026-.858 20.022 20.022 0 00.485-4.25c.021-5.033-2.026-8.792-5.765-10.582a.844.844 0 10-.729 1.522c3.118 1.492 4.824 4.708 4.806 9.052a18.4 18.4 0 01-.465 3.979 7.997 7.997 0 00-.56-.018 8.419 8.419 0 00-6.023 2.531 8.816 8.816 0 00-2.393 7.655c-4.048-.174-7.807-6.746-8.322-13.58a4.275 4.275 0 012.4-1.259c.312-.073 5.3-1.48 6.2-1.849 1.808-.739 3.89-2.46 3.808-4.877a.845.845 0 10-1.688.056c.049 1.452-1.35 2.682-2.76 3.258-.787.322-5.706 1.712-5.947 1.77-1.879.441-5.373 1.265-5.932 10.593a.846.846 0 00.792.894h.051a.845.845 0 00.843-.792 21.648 21.648 0 01.819-5.135 19.57 19.57 0 004.413 9.864l-.322 3.629a2.173 2.173 0 01-2.151 1.988l-1.292.012c-5.586.053-10.108 2.993-10.083 6.541l-.007 1.019a.845.845 0 00.839.85h.005a.846.846 0 00.845-.84l.005-1.03c-.018-2.587 3.832-4.809 8.411-4.853l1.292-.013a3.853 3.853 0 003.816-3.527l.211-2.369a6.616 6.616 0 003.881 1.345c.105 0 .213-.018.32-.02a8.641 8.641 0 001.89 2.974 8.434 8.434 0 0012.1.051 8.841 8.841 0 00.053-12.3z"/><path data-name="Path 214" d="M407.785 2376.868a2.559 2.559 0 01-1.875-.823l-3.989-4.322 1.24-1.145 3.989 4.322a.855.855 0 00.635.279.829.829 0 00.617-.271.852.852 0 00-.1-1.276l-4.661-3.586 1.029-1.338 4.662 3.587a2.562 2.562 0 01.987 1.8 2.563 2.563 0 01-2.535 2.771z"/><g data-name="Group 156"><path data-name="Path 215" d="M397.914 2364.047a.583.583 0 00-.175-.347c-.206-.109-.857.137-1.287.3-.947.357-2.377.895-3.079-.468a.659.659 0 011.172-.6c.121.233.356.245 1.442-.163a2.959 2.959 0 012.364-.234 1.74 1.74 0 01.843 1.2.66.66 0 11-1.28.32z"/><path data-name="Path 216" d="M397.914 2366.686a.584.584 0 00-.175-.347c-.206-.109-.857.137-1.287.3-.947.356-2.377.895-3.079-.468a.659.659 0 111.172-.6c.121.233.356.246 1.442-.163a2.959 2.959 0 012.364-.234 1.741 1.741 0 01.843 1.2.66.66 0 11-1.28.32z"/></g></g></g></svg>